# xmcd
#
# Track frame offsets:
#	150
#	19845
#	34802
#	56176
#	72962
#	88108
#	103142
#	115182
#	129870
#	149012
#	164109
#	182981
#	199152
#	217220
#	231353
#	250181
#	263506
#	280433
#	295881
#	310237
#
# Disc length: 4474 seconds
#
# Revision: 2
# Processed by: cddbd v1.5.2PL0 Copyright (c) Steve Scherf et al.
# Submitted via: EasyCDDAExtractor 12.0.1.1
#
DISCID=44117814
DTITLE=Various Artist - Ons sing jou Taal - Volume 2
DYEAR=2006
DGENRE=Afrikaans
TTITLE0=Kurt Darren - Hemel op Tafelberg
TTITLE1=Dozi - Tussen jou en my
TTITLE2=Theuns Jordaan - Beautiful in Beaufort-Wes
TTITLE3=Steve Hofmeyr - Die Bloubul
TTITLE4=Nicholis Louw - Ek wil my baby hê vanaand
TTITLE5=Robbie Williams - My vissermanvriend se pa
TTITLE6=Valiant Swart - Liefde in die suburbs
TTITLE7=Shine 4 - Begin weer voor
TTITLE8=Blackie Swart - Liewe Lulu
TTITLE9=Die Campbells - Bietjie bietjie lam
TTITLE10=Guillaume - Da-idi
TTITLE11=Fredi Nest - Sê my
TTITLE12=Pieter Smith - Blomme
TTITLE13=Jak De Priester - Binnelanders
TTITLE14=Nadine - Koe-ma-doe
TTITLE15=Jacques de Coning - Veels Geluk
TTITLE16=Ray Dylan - Soek jou hier, soek jou daar
TTITLE17=Arno - Meisie van my drome
TTITLE18=Patricia Lewis - Doodgewoon
TTITLE19=Leon Schuster - Hi kommie Bokke
EXTD=
EXTT0=
EXTT1=
EXTT2=
EXTT3=
EXTT4=
EXTT5=
EXTT6=
EXTT7=
EXTT8=
EXTT9=
EXTT10=
EXTT11=
EXTT12=
EXTT13=
EXTT14=
EXTT15=
EXTT16=
EXTT17=
EXTT18=
EXTT19=
PLAYORDER=
